<svg xmlns="http://www.w3.org/2000/svg" viewBox="0 0 400 300" data-imageid="teacher-outline" imageName="Teacher" class="illustrations_image" style="width: 151px;"><g id="_342_teacher_outline" data-name="#342_teacher_outline"><path d="M140.21,190.55c-4.33,2.66-8.47,5.61-12.63,8.55l-10.65-16.79c-2.63-4.15-7.86-12.69-1.94-16.28a10.37,10.37,0,0,1,3.18-.95c2.4-.54,5-1.64,7.21-.61a8.13,8.13,0,0,1,3.13,3.26,55.83,55.83,0,0,1,3.83,6.38c.89,1.94.33,2.72.69,4.66s2.18,3.9,3.24,5.57Z" fill="#ffc9b0"/><path d="M127.58,200.1l-.19,0a1,1,0,0,1-.65-.45L119,187.46c-2.93-4.63-2.93-4.63-3-4.64-1.83-2.89-5.68-9-4.59-13.62a6.27,6.27,0,0,1,3-4,8.79,8.79,0,0,1,2.85-1l.63-.13c.48-.1,1-.23,1.44-.36,2-.54,4.29-1.15,6.4-.18a8.89,8.89,0,0,1,3.56,3.63c.29.47.6.94.91,1.41a38.49,38.49,0,0,1,3,5.09,6.81,6.81,0,0,1,.64,3.21,8,8,0,0,0,.13,1.68,11.49,11.49,0,0,0,2.07,3.75c.37.51.73,1,1,1.47l3.94,6.22a.93.93,0,0,1,.13.76,1,1,0,0,1-.45.62c-4.07,2.5-8.06,5.32-11.92,8l-.65.46A1,1,0,0,1,127.58,200.1Zm-4.28-35a13.7,13.7,0,0,0-3.39.62q-.76.21-1.53.39l-.66.13a7.08,7.08,0,0,0-2.21.7,4.25,4.25,0,0,0-2.09,2.77c-.9,3.84,2.78,9.64,4.35,12.12l2.93,4.61,7.16,11.28c3.55-2.5,7.21-5.09,11-7.43l-3.4-5.37c-.27-.43-.61-.9-.95-1.38a12.53,12.53,0,0,1-2.42-4.54,10.83,10.83,0,0,1-.16-2,4.91,4.91,0,0,0-.46-2.39,38,38,0,0,0-2.84-4.82l-.93-1.43a7.23,7.23,0,0,0-2.7-2.89A3.91,3.91,0,0,0,123.3,165.05Z" fill="#093f68"/><path d="M125.7,186.69a1,1,0,0,1-.94-.66l-21.59-61.26a1,1,0,0,1,.62-1.27,1,1,0,0,1,1.27.61l21.59,61.25a1,1,0,0,1-1,1.33Z" fill="#093f68"/><path d="M125.43,169.41c-1-.1-5.17-1.11-6.16-.77a2.14,2.14,0,0,0-1.53,2.4c.25.84,1.16,1.29,2,1.6a27.33,27.33,0,0,0,6.55,1.57,7.3,7.3,0,0,0,1.66,7.94" fill="#ffc9b0"/><path d="M127.94,183.15a1,1,0,0,1-.69-.27A8.32,8.32,0,0,1,125,175a28.3,28.3,0,0,1-5.58-1.46,3.92,3.92,0,0,1-2.6-2.26A3.12,3.12,0,0,1,119,167.7c.88-.3,2.66,0,5.09.46.63.12,1.22.23,1.49.25a1,1,0,0,1,.89,1.1,1,1,0,0,1-1.09.89c-.35,0-.93-.14-1.66-.28a21.31,21.31,0,0,0-4.08-.53c-.56.2-1,.77-.89,1.16s1.07.84,1.38,1a26.26,26.26,0,0,0,6.31,1.5,1,1,0,0,1,.75.49,1,1,0,0,1,.06.9,6.31,6.31,0,0,0,1.43,6.83,1,1,0,0,1,0,1.41A1,1,0,0,1,127.94,183.15Z" fill="#093f68"/><path d="M184.94,161.77s-12.34-.06-16.84,8.9-14.55,34-14.55,34l-14.12-17.9-17.27,9.57s17.07,37.85,32.57,37.32c16.19-.57,28.5-33.66,28.5-33.66" fill="#fff"/><path d="M154.4,234.65c-15.87,0-32.44-36.35-33.15-37.91a1,1,0,0,1,.43-1.28L139,185.88a1,1,0,0,1,1.27.26l13.05,16.54c2.3-5.67,10.13-24.88,13.94-32.46,4.73-9.41,17.19-9.45,17.74-9.45a1,1,0,0,1,0,2h0c-.18,0-11.79.08-15.95,8.35-4.43,8.82-14.41,33.66-14.51,33.91a1,1,0,0,1-.78.62,1,1,0,0,1-.93-.37l-13.6-17.23-15.71,8.7c2.59,5.47,17.59,35.9,30.93,35.9h.3c15.34-.54,27.49-32.69,27.61-33a1,1,0,0,1,1.28-.59,1,1,0,0,1,.59,1.29c-.51,1.37-12.74,33.72-29.41,34.31Z" fill="#093f68"/><path d="M248.17,224.57s.57,8.31,8.31,11.83S277.6,231.77,273.8,218,247.47,213.31,248.17,224.57Z" fill="#fff"/><path d="M260.47,238.22a10.75,10.75,0,0,1-4.41-.91c-8.19-3.72-8.86-12.3-8.89-12.67h0c-.44-7.09,7.18-13.17,14.58-14.4,6.55-1.1,11.42,1.69,13,7.46,1.81,6.57.09,12.7-4.73,16.81A15,15,0,0,1,260.47,238.22Zm-11.3-13.71c0,.35.66,7.77,7.72,11,3.43,1.55,8.29.53,11.84-2.5,4.2-3.59,5.7-9,4.1-14.76-1.86-6.75-8.14-6.46-10.76-6C255.68,213.28,248.8,218.59,249.17,224.51Z" fill="#093f68"/><path d="M220.33,161.77s20.07,0,25.4,14.21c2.6,6.92,9.51,40.26,9.51,40.26L233,213.79Z" fill="#fff"/><path d="M255.24,217.24h-.11l-22.2-2.45a1,1,0,0,1-.86-.75l-12.71-52a1,1,0,0,1,.18-.86,1,1,0,0,1,.79-.38,40.73,40.73,0,0,1,11,1.82c7.74,2.42,13,6.93,15.34,13,2.59,6.92,9.27,39,9.55,40.42a1,1,0,0,1-.24.87A1,1,0,0,1,255.24,217.24Zm-21.4-4.37L254,215.09c-1.32-6.3-6.94-32.78-9.19-38.76-4.26-11.36-18.75-13.2-23.17-13.5Z" fill="#093f68"/><path d="M186.27,161.7h34.06A12.71,12.71,0,0,1,233,174.41V241.3a0,0,0,0,1,0,0H173.55a0,0,0,0,1,0,0V174.41A12.71,12.71,0,0,1,186.27,161.7Z" fill="#0b061f" class="target-color"/><path d="M233,242.3H173.55a1,1,0,0,1-1-1V174.41a13.73,13.73,0,0,1,13.72-13.71h34.06A13.73,13.73,0,0,1,234,174.41V241.3A1,1,0,0,1,233,242.3Zm-58.49-2H232V174.41a11.72,11.72,0,0,0-11.71-11.71H186.27a11.73,11.73,0,0,0-11.72,11.71Z" fill="#093f68"/><path d="M203.3,242.3a1,1,0,0,1-1-1V172.39a1,1,0,0,1,2,0V241.3A1,1,0,0,1,203.3,242.3Z" fill="#093f68"/><polygon points="203.3 205.91 193.25 161.7 213.34 161.7 203.3 205.91" fill="#fff"/><path d="M203.3,206.91a1,1,0,0,1-1-.78l-10-44.21a1,1,0,0,1,.19-.84,1,1,0,0,1,.78-.38h20.09a1,1,0,0,1,.78.38,1,1,0,0,1,.2.84l-10,44.21A1,1,0,0,1,203.3,206.91Zm-8.8-44.21,8.8,38.69,8.79-38.69Z" fill="#093f68"/><polygon points="203.3 168.59 191.05 178.88 189.74 161.7 203.3 161.7 203.3 168.59" fill="#fff"/><path d="M191.05,179.88a1,1,0,0,1-.38-.08,1,1,0,0,1-.61-.85l-1.32-17.17A1,1,0,0,1,189,161a1,1,0,0,1,.73-.32H203.3a1,1,0,0,1,1,1v6.89a1,1,0,0,1-.36.77L191.7,179.64A1,1,0,0,1,191.05,179.88Zm-.23-17.18,1.08,14.16,10.4-8.73V162.7Zm12.48,5.89h0Z" fill="#093f68"/><polygon points="203.3 168.59 215.54 178.88 216.85 161.7 203.3 161.7 203.3 168.59" fill="#fff"/><path d="M215.54,179.88a1,1,0,0,1-.64-.24l-12.25-10.28a1,1,0,0,1-.35-.77V161.7a1,1,0,0,1,1-1h13.56a1,1,0,0,1,.73.32,1,1,0,0,1,.26.76L216.54,179a1,1,0,0,1-.61.85A1.09,1.09,0,0,1,215.54,179.88ZM204.3,168.13l10.39,8.73,1.09-14.16H204.3Z" fill="#093f68"/><path d="M198,158h10.64a0,0,0,0,1,0,0v6.12a4.52,4.52,0,0,1-4.52,4.52h-1.61a4.52,4.52,0,0,1-4.52-4.52V158A0,0,0,0,1,198,158Z" fill="#ffc9b0"/><path d="M204.1,169.59h-1.61a5.51,5.51,0,0,1-5.51-5.51V158a1,1,0,0,1,1-1h10.64a1,1,0,0,1,1,1v6.12A5.52,5.52,0,0,1,204.1,169.59ZM199,159v5.12a3.51,3.51,0,0,0,3.51,3.51h1.61a3.52,3.52,0,0,0,3.52-3.51V159Z" fill="#093f68"/><path d="M165.9,128.3s-1.24-32-1.5-32.39c-2.49-4-6.27-8.66-4.43-13a11,11,0,0,1,5-5.33,9.75,9.75,0,0,1,3.8-1.11c.84,0,2.66.57,3.27-.06s.13-2.11.18-2.79c.84-11.7,17.71-16.64,25.41-8.22,2.62-4.34,7.15-9.29,17.28-6.48,9.76,2.71,9.39,11.66,9.39,11.66s9.17-1.7,13,.66a9.61,9.61,0,0,1,3.23,2.66c.36.57,1.24,6.43.33,6.22,2.33.55,4.8,1.3,6.28,3.19a6.51,6.51,0,0,1,.86,6.06c-.86,2.44-5.48,6.62-5.48,6.62-.23.66-2.77,27.45-4.31,34.33l-3.71-2.15c-2.76-.48-6.22.2-9,.29l-20.62.64C194.51,129.43,177.12,132.54,165.9,128.3Z" fill="#725858"/><path d="M181.4,131.51c-5.69,0-11.26-.54-15.85-2.28a1,1,0,0,1-.65-.89c-.46-12-1.22-30-1.45-32.06-.31-.49-.63-1-1-1.49-2.46-3.77-5.24-8-3.44-12.26a12.05,12.05,0,0,1,5.44-5.82,10.41,10.41,0,0,1,4.19-1.22,5.48,5.48,0,0,1,1.3.1,6.11,6.11,0,0,0,1.3.11,5.68,5.68,0,0,0,0-1.16,6.82,6.82,0,0,1,0-1c.4-5.55,4.34-10.28,10.27-12.34s11.95-1,16,2.62c2.8-4.18,7.68-8.66,17.73-5.86,8.19,2.27,9.76,8.75,10.05,11.45,2.65-.37,9.28-1.06,12.58,1l.15.09a10,10,0,0,1,3.39,2.89,17.23,17.23,0,0,1,.85,6.06,10.31,10.31,0,0,1,5.7,3.26,7.46,7.46,0,0,1,1,7c-.82,2.35-4.44,5.83-5.5,6.81-.09.74-.38,3.34-.7,6.3-.92,8.57-2.47,22.92-3.56,27.73a1,1,0,0,1-.57.69,1,1,0,0,1-.9-.05l-3.55-2.05a24.88,24.88,0,0,0-5.69.11c-1,.09-2,.19-3,.21l-20.61.65c-2.49.08-5.43.32-8.55.58C191.67,131.08,186.49,131.51,181.4,131.51Zm-14.53-3.92c8.25,2.86,19.89,1.89,29.28,1.11,3.15-.26,6.12-.51,8.65-.59l20.62-.64c.87,0,1.82-.12,2.82-.21a25,25,0,0,1,6.4-.06h0a29.15,29.15,0,0,1,2.82,1.56c1-5.66,2.41-18.33,3.26-26.16.63-5.87.72-6.65.82-6.93a1.13,1.13,0,0,1,.27-.41c1.24-1.12,4.57-4.41,5.2-6.21a5.54,5.54,0,0,0-.7-5.12c-1.31-1.67-3.64-2.34-5.72-2.83h0a1,1,0,0,1-.75-1.2,1.06,1.06,0,0,1,.36-.57,19,19,0,0,0-.59-5,8.81,8.81,0,0,0-2.72-2.19l-.15-.09c-2.86-1.76-9.83-1-12.28-.53a1,1,0,0,1-.84-.23,1,1,0,0,1-.34-.79c0-.33.19-8.2-8.66-10.66-9.49-2.63-13.62,1.84-16.15,6a1,1,0,0,1-.76.48,1,1,0,0,1-.84-.32c-3.42-3.74-9.21-4.92-14.74-3-5.17,1.79-8.59,5.85-8.94,10.6a4.63,4.63,0,0,0,.05.65c.08.92.2,2.06-.51,2.78s-2,.59-3,.44a5.78,5.78,0,0,0-.88-.09,8.81,8.81,0,0,0-3.4,1,10,10,0,0,0-4.52,4.84c-1.38,3.24,1,6.87,3.27,10.37l1.09,1.69C165.42,95.67,165.65,96,166.87,127.59ZM241,79.15h0Z" fill="#093f68"/><ellipse cx="172.9" cy="130.33" rx="10.33" ry="8.9" fill="#ffc9b0"/><path d="M172.9,140.23c-6.25,0-11.34-4.44-11.34-9.9s5.09-9.91,11.34-9.91,11.33,4.45,11.33,9.91S179.15,140.23,172.9,140.23Zm0-17.81c-5.15,0-9.34,3.55-9.34,7.91s4.19,7.9,9.34,7.9,9.33-3.54,9.33-7.9S178.05,122.42,172.9,122.42Z" fill="#093f68"/><ellipse cx="233.15" cy="130.33" rx="10.33" ry="8.9" fill="#ffc9b0"/><path d="M233.15,140.23c-6.25,0-11.34-4.44-11.34-9.9s5.09-9.91,11.34-9.91,11.33,4.45,11.33,9.91S239.4,140.23,233.15,140.23Zm0-17.81c-5.15,0-9.34,3.55-9.34,7.91s4.19,7.9,9.34,7.9,9.33-3.54,9.33-7.9S238.29,122.42,233.15,122.42Z" fill="#093f68"/><path d="M203.3,159.35a31.16,31.16,0,0,1-31.17-31.17V114.49c0-2.29-.65-5.7,0-7.9.48-1.54,1.94-2.1,3-3.24a10.93,10.93,0,0,0,2.87-5.81,9.66,9.66,0,0,0,8.88.25,19.38,19.38,0,0,0,7-5.87,13,13,0,0,0,10,3,21.46,21.46,0,0,0,9.9-3.93c1.54,4.08,4.26,7.88,8.14,9.86,3.63,1.84,9.74,2.06,12.43-1.57.67,9.52,0,19.32,0,28.87A31.16,31.16,0,0,1,203.3,159.35Z" fill="#ffc9b0"/><path d="M203.3,160.35a32.2,32.2,0,0,1-32.17-32.17V114.49c0-.67-.06-1.47-.13-2.32a16.8,16.8,0,0,1,.21-5.87,5.55,5.55,0,0,1,2.2-2.73,9.4,9.4,0,0,0,1.05-.91,9.9,9.9,0,0,0,2.61-5.28,1,1,0,0,1,1.52-.69,8.66,8.66,0,0,0,7.94.19,18.12,18.12,0,0,0,6.65-5.59,1,1,0,0,1,1.45-.11A12.07,12.07,0,0,0,203.87,94a20.26,20.26,0,0,0,9.43-3.76,1,1,0,0,1,.86-.13,1,1,0,0,1,.64.61c1.63,4.33,4.35,7.64,7.66,9.32,3,1.54,8.76,2,11.17-1.27a1,1,0,0,1,1.08-.37,1,1,0,0,1,.72.89c.45,6.46.31,13.11.17,19.54-.07,3.09-.14,6.29-.14,9.4A32.2,32.2,0,0,1,203.3,160.35ZM178.76,99a12.07,12.07,0,0,1-2.84,5,11.52,11.52,0,0,1-1.28,1.11,3.79,3.79,0,0,0-1.52,1.75A15.64,15.64,0,0,0,173,112c.06.89.13,1.73.13,2.48v13.69a30.17,30.17,0,1,0,60.33,0c0-3.13.07-6.34.14-9.45.12-5.67.25-11.51,0-17.2-3.28,2.31-8.41,2.07-12,.24a18.29,18.29,0,0,1-8.15-9.25,21.55,21.55,0,0,1-9.34,3.42,14.12,14.12,0,0,1-10-2.61,19.23,19.23,0,0,1-6.75,5.38A11.07,11.07,0,0,1,178.76,99Z" fill="#093f68"/><path d="M203.22,133.9a21.44,21.44,0,0,1-3.12-.25,1,1,0,0,1-.81-1.16,1,1,0,0,1,1.16-.81,15.26,15.26,0,0,0,4.75,0c.2-.92-1-4.36-2.7-7.58a1,1,0,1,1,1.77-.92c1.13,2.15,3.64,7.37,2.72,9.42a1.72,1.72,0,0,1-1.16,1A10.81,10.81,0,0,1,203.22,133.9Z" fill="#093f68"/><path d="M196.35,110h0l-15.28,0a2,2,0,0,1,0-4h0l15.28,0a2,2,0,0,1,0,4Z" fill="#093f68"/><path d="M224.56,110h0l-15.29,0a2,2,0,0,1,0-4h0l15.28,0a2,2,0,0,1,0,4Z" fill="#093f68"/><path d="M179.7,115.43h18a2.56,2.56,0,0,1,2.56,2.56v1.67a8.63,8.63,0,0,1-8.63,8.63h-5.87a8.63,8.63,0,0,1-8.63-8.63V118A2.56,2.56,0,0,1,179.7,115.43Z" fill="#fff"/><path d="M191.64,129.3h-5.86a9.65,9.65,0,0,1-9.64-9.64V118a3.57,3.57,0,0,1,3.56-3.56h18a3.56,3.56,0,0,1,3.55,3.56v1.67A9.64,9.64,0,0,1,191.64,129.3ZM179.7,116.43a1.56,1.56,0,0,0-1.56,1.56v1.67a7.65,7.65,0,0,0,7.64,7.64h5.86a7.64,7.64,0,0,0,7.63-7.64V118a1.55,1.55,0,0,0-1.55-1.56Z" fill="#093f68"/><path d="M208.76,115.43h18a2.56,2.56,0,0,1,2.56,2.56v1.67a8.63,8.63,0,0,1-8.63,8.63h-5.87a8.63,8.63,0,0,1-8.63-8.63V118A2.56,2.56,0,0,1,208.76,115.43Z" fill="#fff"/><path d="M220.7,129.3h-5.87a9.64,9.64,0,0,1-9.63-9.64V118a3.57,3.57,0,0,1,3.56-3.56h18a3.56,3.56,0,0,1,3.56,3.56v1.67A9.64,9.64,0,0,1,220.7,129.3Zm-11.94-12.87A1.56,1.56,0,0,0,207.2,118v1.67a7.64,7.64,0,0,0,7.63,7.64h5.87a7.64,7.64,0,0,0,7.63-7.64V118a1.56,1.56,0,0,0-1.56-1.56Z" fill="#093f68"/><path d="M177.14,120.66h-5.8a1,1,0,0,1,0-2h5.8a1,1,0,0,1,0,2Z" fill="#093f68"/><path d="M235.43,120.66h-5.81a1,1,0,0,1,0-2h5.81a1,1,0,0,1,0,2Z" fill="#093f68"/><path d="M206.2,120.66h-5.93a1,1,0,0,1,0-2h5.93a1,1,0,0,1,0,2Z" fill="#093f68"/><path d="M202.64,143.55a28.87,28.87,0,0,1-10.44-1.91,1,1,0,0,1,.72-1.87,29,29,0,0,0,19.76,0,1,1,0,0,1,.77,1.85A30.41,30.41,0,0,1,202.64,143.55Z" fill="#093f68"/><path d="M240.4,228.5l-32.58-3.2V180.82l26.11,2c3.74.71,6.47,4.34,6.47,8.58Z" fill="#fff"/><path d="M240.4,229.5h-.1l-32.58-3.19a1,1,0,0,1-.9-1V180.82a1,1,0,0,1,.32-.74,1,1,0,0,1,.76-.26l26.11,2,.11,0c4.22.8,7.28,4.82,7.28,9.56V228.5a1,1,0,0,1-.33.74A1,1,0,0,1,240.4,229.5Zm-31.58-5.1,30.58,3v-36c0-3.76-2.35-6.94-5.6-7.59l-25-1.88Z" fill="#093f68"/><path d="M273,225.3l-32.58,3.2V191.36c0-4.24,2.73-7.87,6.47-8.58l26.11-2Z" fill="#fff"/><path d="M240.4,229.5a1,1,0,0,1-.67-.26,1,1,0,0,1-.33-.74V191.36c0-4.74,3.06-8.76,7.28-9.56l.11,0,26.12-2a1,1,0,0,1,.75.26,1,1,0,0,1,.32.74V225.3a1,1,0,0,1-.9,1l-32.58,3.19Zm6.6-45.73c-3.25.65-5.6,3.83-5.6,7.59v36l30.58-3V181.89Zm26,41.53h0Z" fill="#093f68"/><polygon points="235.07 233.65 203.91 230.45 203.91 185.97 235.07 189.16 235.07 233.65" fill="#ffbc0e"/><path d="M235.07,234.65H235l-31.16-3.19a1,1,0,0,1-.9-1V186a1,1,0,0,1,.33-.74A1,1,0,0,1,204,185l31.16,3.19a1,1,0,0,1,.9,1v44.49a1,1,0,0,1-.33.74A1,1,0,0,1,235.07,234.65Zm-30.16-5.1,29.16,3V190.06l-29.16-3Z" fill="#093f68"/><polygon points="276.89 230.45 245.73 233.65 245.73 189.16 276.89 185.97 276.89 230.45" fill="#ffbc0e"/><path d="M245.73,234.65a1,1,0,0,1-.67-.26,1,1,0,0,1-.33-.74V189.16a1,1,0,0,1,.9-1L276.79,185a1,1,0,0,1,.77.25,1,1,0,0,1,.33.74v44.49a1,1,0,0,1-.9,1l-31.16,3.19Zm1-44.59v42.48l29.16-3V187.07Zm30.16,40.39h0Z" fill="#093f68"/><rect x="235.07" y="189.16" width="10.66" height="44.49" transform="translate(480.8 422.8) rotate(180)" fill="#ffbc0e"/><path d="M245.73,234.65H235.07a1,1,0,0,1-1-1V189.16a1,1,0,0,1,1-1h10.66a1,1,0,0,1,1,1v44.49A1,1,0,0,1,245.73,234.65Zm-9.66-2h8.66V190.16h-8.66Z" fill="#093f68"/><path d="M279.07,211.6a2.1,2.1,0,0,0-1.62-.57c-1.83.33-1.32,4.55-3.2,5.54-1.44.75-5,.12-6.69.25a4.84,4.84,0,0,0-2.75.8,4.76,4.76,0,0,0-1.29,2.15,42.47,42.47,0,0,0-2.11,8.32c-.75,5,2.9,5,6.83,5.48a13.9,13.9,0,0,0,11.82-4.87,13.51,13.51,0,0,0,2.48-11.41A14.22,14.22,0,0,0,279.07,211.6Z" fill="#ffc9b0"/><path d="M269.51,234.64a12.63,12.63,0,0,1-1.38-.07l-.74-.08c-2.51-.27-4.88-.53-6.19-2.22a5.51,5.51,0,0,1-.78-4.33,44,44,0,0,1,2.16-8.52,4.63,4.63,0,0,1,4.91-3.6,19.19,19.19,0,0,1,2.34.05c1.37.08,3.25.18,4-.19.53-.28.83-1.37,1.09-2.32.39-1.42.84-3,2.39-3.31a3,3,0,0,1,2.43.77h0c1.91,1.54,3.48,5,3.81,6.2a14.65,14.65,0,0,1-2.67,12.31A15.11,15.11,0,0,1,269.51,234.64ZM268.1,217.8l-.46,0a2.75,2.75,0,0,0-3.18,2.29,41.5,41.5,0,0,0-2.06,8.12,3.63,3.63,0,0,0,.39,2.81c.78,1,2.74,1.23,4.82,1.46l.74.08a12.89,12.89,0,0,0,10.93-4.51,12.47,12.47,0,0,0,2.3-10.51,13.25,13.25,0,0,0-3.14-5.18h0a1.24,1.24,0,0,0-.82-.37c-.31.06-.62,1.2-.81,1.88-.37,1.35-.79,2.87-2.09,3.56s-3.13.52-5,.42C269.13,217.83,268.56,217.8,268.1,217.8Z" fill="#093f68"/><path d="M253,205.66a1,1,0,0,1-.67-.26,1,1,0,0,1-.33-.74v-6.95a1,1,0,0,1,.91-1L270.63,195a1,1,0,0,1,.77.26,1,1,0,0,1,.33.74V203a1,1,0,0,1-.91,1l-17.74,1.69Zm1-7v4.94l15.74-1.5v-4.94ZM270.73,203h0Z" fill="#093f68"/><path d="M181.07,229.5a1,1,0,0,1-.85-.47,1,1,0,0,1,.31-1.38l15.28-9.72a1,1,0,0,1,1.38.31,1,1,0,0,1-.3,1.38l-15.29,9.72A.94.94,0,0,1,181.07,229.5Z" fill="#093f68"/><path d="M181.83,124.07a1,1,0,0,1-.77-.36,1,1,0,0,1,.13-1.41l6-5a1,1,0,0,1,1.41.13,1,1,0,0,1-.13,1.41l-6,5A1,1,0,0,1,181.83,124.07Z" fill="#dfeaef"/><path d="M191.71,123.77a1,1,0,0,1-.76-.34,1,1,0,0,1,.1-1.41l3.09-2.7a1,1,0,1,1,1.31,1.51l-3.09,2.69A1,1,0,0,1,191.71,123.77Z" fill="#dfeaef"/><path d="M212.63,123.15a1,1,0,0,1-.65-1.76l5.14-4.37a1,1,0,1,1,1.29,1.53l-5.13,4.36A1,1,0,0,1,212.63,123.15Z" fill="#dfeaef"/><path d="M219.87,125.33a1,1,0,0,1-.79-.4,1,1,0,0,1,.19-1.4l5-3.74a1,1,0,1,1,1.2,1.59l-5,3.75A1.06,1.06,0,0,1,219.87,125.33Z" fill="#dfeaef"/></g></svg>